Coordinates
version=1
nRows=22
nColumns=24
inDegrees=yes

Units are S.I. units (second, meters, Newtons, ...)
Angles are in degrees.

endheader
time	pelvis_tilt	pelvis_list	pelvis_rotation	pelvis_tx	pelvis_ty	pelvis_tz	hip_flexion_r	hip_adduction_r	hip_rotation_r	knee_angle_r	ankle_angle_r	subtalar_angle_r	mtp_angle_r	hip_flexion_l	hip_adduction_l	hip_rotation_l	knee_angle_l	ankle_angle_l	subtalar_angle_l	mtp_angle_l	lumbar_extension	lumbar_bending	lumbar_rotation
      3.07000000	     -1.64191760	     -1.25298431	     -5.54453649	     -0.87067293	      0.90565250	      0.21492106	    -11.35581705	      6.63484020	     11.89940401	    -21.80178535	     26.15940061	     -6.42876640	      0.00000000	     31.60546871	     -0.40561674	     -4.61956033	    -13.25203360	     15.43710683	     -5.97465262	      0.00000000	    -13.04170480	     -2.59901003	     -4.21826424
      3.07500000	     -1.66182646	     -1.04825760	     -5.46039544	     -0.86271724	      0.90462342	      0.21445790	    -11.45201412	      6.30869517	     11.28025366	    -22.49819107	     26.03058915	     -5.64741768	      0.00000000	     31.80474885	     -0.11364605	     -4.70831212	    -14.27622311	     15.16290792	     -6.37822632	      0.00000000	    -12.98789388	     -2.90362812	     -4.33740253
      3.08000000	     -1.70199167	     -0.81173852	     -5.37111587	     -0.85477834	      0.90365159	      0.21399028	    -11.47119825	      5.95005697	     10.62693710	    -23.28186207	     25.84560615	     -4.83427568	      0.00000000	     32.01873416	      0.20823081	     -4.76512782	    -15.30346014	     14.76028224	     -6.78472603	      0.00000000	    -12.91668228	     -3.24782149	     -4.47213502
      3.08500000	     -1.76897653	     -0.53506337	     -5.26766649	     -0.84682061	      0.90274254	      0.21351090	    -11.40913524	      5.55408501	      9.94544112	    -24.14946315	     25.57140675	     -4.02659609	      0.00000000	     32.25470524	      0.57190832	     -4.81665993	    -16.32166212	     14.24760025	     -7.19069934	      0.00000000	    -12.81158131	     -3.63875926	     -4.63526928
      3.09000000	     -1.85445775	     -0.25272289	     -5.17291002	     -0.83896054	      0.90191527	      0.21299297	    -11.24743378	      5.13856306	      9.20486529	    -25.13760785	     25.23071274	     -3.13750164	      0.00000000	     32.51136003	      0.94432792	     -4.79721167	    -17.33462436	     13.61685349	     -7.66277311	      0.00000000	    -12.70526509	     -4.03017736	     -4.80025159
      3.09500000	     -1.97842361	      0.13421481	     -5.02814222	     -0.83096034	      0.90116046	      0.21253729	    -11.02543632	      4.65051203	      8.52105204	    -26.15720136	     24.74481965	     -2.42899818	      0.00000000	     32.80909795	      1.41585046	     -4.86510141	    -18.34578467	     12.94172431	     -7.99173310	      0.00000000	    -12.52434624	     -4.55981328	     -5.03477394
      3.10000000	     -2.12482099	      0.48351958	     -4.91823525	     -0.82317143	      0.90046251	      0.21196344	    -10.65588858	      4.15418324	      7.69978061	    -27.36116502	     24.22842076	     -1.49788647	      0.00000000	     33.14477763	      1.86271774	     -4.78989184	    -19.36960309	     12.17298364	     -8.50119623	      0.00000000	    -12.36009403	     -5.02442753	     -5.21792445
      3.10500000	     -2.29214710	      0.89809557	     -4.77975006	     -0.81529914	      0.89985171	      0.21143749	    -10.22809753	      3.61038041	      6.93662992	    -28.62225960	     23.55870904	     -0.70390965	      0.00000000	     33.50174487	      2.37196696	     -4.75958787	    -20.39807620	     11.41054197	     -8.91515748	      0.00000000	    -12.15448033	     -5.57679498	     -5.44745650
      3.11000000	     -2.47181894	      1.32658981	     -4.64142348	     -0.80743355	      0.89931311	      0.21090643	     -9.72224084	      3.04476993	      6.18156382	    -29.98229670	     22.76720968	      0.07273253	      0.00000000	     33.87274607	      2.89677291	     -4.71540784	    -21.43640767	     10.66099209	     -9.32364376	      0.00000000	    -11.93633153	     -6.14597968	     -5.67405754
      3.11500000	     -2.65387405	      1.77332554	     -4.50902995	     -0.79952905	      0.89883365	      0.21038605	     -9.15335502	      2.45191164	      5.44513762	    -31.43532848	     21.84755979	      0.79825877	      0.00000000	     34.23771636	      3.43797727	     -4.66989721	    -22.47621682	      9.97524192	     -9.71015781	      0.00000000	    -11.70836123	     -6.73992026	     -5.91355055
      3.12000000	     -2.82182724	      2.21325164	     -4.36465290	     -0.79158605	      0.89846901	      0.20987604	     -8.55144917	      1.86047958	      4.73073873	    -32.95443852	     20.75599949	      1.48371917	      0.00000000	     34.56528811	      3.97417662	     -4.65632544	    -23.48806125	      9.33380462	    -10.04565882	      0.00000000	    -11.49065914	     -7.32583441	     -6.12666357
      3.12500000	     -2.98644488	      2.63379253	     -4.25059404	     -0.78366062	      0.89812480	      0.20931974	     -7.87842260	      1.25746459	      4.02585571	    -34.57989808	     19.56592362	      2.18779399	      0.00000000	     34.86962011	      4.49511945	     -4.59045750	    -24.48061697	      8.76999849	    -10.43843200	      0.00000000	    -11.27871913	     -7.87590993	     -6.30789770
      3.13000000	     -3.13788222	      3.02031158	     -4.15826608	     -0.77579322	      0.89780294	      0.20873183	     -7.14909038	      0.67363500	      3.37332261	    -36.29888767	     18.26192167	      2.82896445	      0.00000000	     35.13673836	      4.98755819	     -4.49931735	    -25.44033862	      8.29773863	    -10.87888960	      0.00000000	    -11.09188986	     -8.38046954	     -6.44515652
      3.13500000	     -3.25373704	      3.41436932	     -4.06200543	     -0.76783239	      0.89758112	      0.20816371	     -6.42086071	      0.07054019	      2.74587338	    -38.05427182	     16.80536711	      3.39174724	      0.00000000	     35.31761598	      5.48123188	     -4.47549763	    -26.33243707	      7.97433524	    -11.21009064	      0.00000000	    -10.92777611	     -8.89346916	     -6.59140429
      3.14000000	     -3.35446214	      3.78459261	     -3.97502213	     -0.75988493	      0.89742243	      0.20754683	     -5.65626826	     -0.52719215	      2.15661168	    -39.85956055	     15.22563938	      3.90441435	      0.00000000	     35.43714467	      5.95730176	     -4.45467290	    -27.15322469	      7.76298421	    -11.53967161	      0.00000000	    -10.77941181	     -9.36433149	     -6.69881886
      3.14500000	     -3.42572433	      4.14952736	     -3.89386592	     -0.75193095	      0.89733052	      0.20690902	     -4.88034064	     -1.13111824	      1.60905276	    -41.69494129	     13.55225420	      4.31035591	      0.00000000	     35.48053191	      6.42921197	     -4.45649884	    -27.90954608	      7.71120176	    -11.79565152	      0.00000000	    -10.65923613	     -9.81835339	     -6.80781990
      3.15000000	     -3.48253163	      4.49769707	     -3.81918271	     -0.74397778	      0.89729594	      0.20622018	     -4.07823252	     -1.73300296	      1.09566460	    -43.54860365	     11.78834705	      4.60168922	      0.00000000	     35.45902652	      6.89007016	     -4.47303734	    -28.59207960	      7.82603709	    -12.00552315	      0.00000000	    -10.54863418	    -10.23757100	     -6.90267737
      3.15500000	     -3.45279446	      4.82710941	     -3.73779875	     -0.73605515	      0.89744232	      0.20556498	     -3.34527233	     -2.30532956	      0.63741687	    -45.37913528	      9.92765335	      4.65935175	      0.00000000	     35.29725862	      7.33812819	     -4.50114146	    -29.20896286	      8.13583009	    -12.07075638	      0.00000000	    -10.54696614	    -10.63812351	     -7.01629274
      3.16000000	     -3.46278589	      5.16356380	     -3.65214330	     -0.72821809	      0.89757577	      0.20480744	     -2.51681790	     -2.89932855	      0.20476502	    -47.23506862	      8.07953452	      4.63656611	      0.00000000	     35.14158198	      7.80147015	     -4.53594828	    -29.75737418	      8.52697030	    -12.11381437	      0.00000000	    -10.50340863	    -11.02200585	     -7.12686589
      3.16500000	     -3.54113349	      5.48469103	     -3.57059938	     -0.72047231	      0.89768139	      0.20398741	     -1.56930177	     -3.47214725	     -0.15711350	    -49.09379434	      6.22851922	      4.45860871	      0.00000000	     35.03373591	      8.24078344	     -4.59500892	    -30.26473854	      8.99076596	    -12.08401948	      0.00000000	    -10.37626714	    -11.36036200	     -7.23205792
      3.17000000	     -3.50626647	      5.79883024	     -3.47501397	     -0.71275938	      0.89798305	      0.20315712	     -0.72714135	     -4.04042936	     -0.53261149	    -50.90682634	      4.41016301	      4.00195709	      0.00000000	     34.75011451	      8.69798629	     -4.62536500	    -30.68517315	      9.60906205	    -12.00561562	      0.00000000	    -10.39271970	    -11.69633894	     -7.35179404
      3.17500000	     -3.57527025	      6.07550083	     -3.37970880	     -0.70520385	      0.89825644	      0.20236514	      0.26912564	     -4.52725111	     -0.79839447	    -52.69818616	      2.59540458	      3.29749775	      0.00000000	     34.57132794	      9.08095963	     -4.72951429	    -31.09596478	     10.25389720	    -11.78473478	      0.00000000	    -10.29585630	    -11.97421925	     -7.49519377
